STARTFONT 2.1
FONT -Monotype-Century Schoolbook-Regular-I-Normal--10-100-75-75-P-53-iso8859-9
SIZE 10 75 75
FONTBOUNDINGBOX 12 13 -2 -3

STARTPROPERTIES 24
FOUNDRY "Monotype"
FAMILY_NAME "Century Schoolbook"
WEIGHT_NAME "Regular"
SLANT "I"
SETWIDTH_NAME "Normal"
ADD_STYLE_NAME ""
PIXEL_SIZE 10
POINT_SIZE 100
RESOLUTION_X 75
RESOLUTION_Y 75
SPACING "P"
AVERAGE_WIDTH 53
CHARSET_REGISTRY "iso8859"
CHARSET_ENCODING "9"
FACE_NAME "Century Schoolbook it ISO Latin5"
_DEC_DEVICE_FONTNAMES "PS=centuryschoolbook-italic-lat5"
COPYRIGHT "Copyright (c) 1994 Monotype Typography Ltd."
CAP_HEIGHT 9
X_HEIGHT 6
WEIGHT 10
QUAD_WIDTH 5
DEFAULT_CHAR 160
FONT_DESCENT 3
FONT_ASCENT 10
ENDPROPERTIES

CHARS 191

STARTCHAR space
ENCODING 32
SWIDTH 278 0
DWIDTH 3 0
BBX 0 0 0 0
BITMAP
ENDCHAR

STARTCHAR exclam
ENCODING 33
SWIDTH 333 0
DWIDTH 3 0
BBX 3 7 1 0
BITMAP
20
20
40
40
40
00
80
ENDCHAR

STARTCHAR quotedbl
ENCODING 34
SWIDTH 400 0
DWIDTH 4 0
BBX 3 3 2 4
BITMAP
A0
A0
A0
ENDCHAR

STARTCHAR numbersign
ENCODING 35
SWIDTH 606 0
DWIDTH 6 0
BBX 6 7 1 0
BITMAP
28
28
FC
50
F8
50
50
ENDCHAR

STARTCHAR dollar
ENCODING 36
SWIDTH 556 0
DWIDTH 6 0
BBX 5 9 1 -1
BITMAP
10
38
48
40
20
10
90
E0
40
ENDCHAR

STARTCHAR percent
ENCODING 37
SWIDTH 833 0
DWIDTH 8 0
BBX 8 7 0 0
BITMAP
64
A4
A8
CB
15
25
26
ENDCHAR

STARTCHAR ampersand
ENCODING 38
SWIDTH 852 0
DWIDTH 9 0
BBX 8 7 1 0
BITMAP
18
24
38
57
92
9C
6E
ENDCHAR

STARTCHAR quoteright
ENCODING 39
SWIDTH 204 0
DWIDTH 2 0
BBX 2 3 1 4
BITMAP
40
40
80
ENDCHAR

STARTCHAR parenleft
ENCODING 40
SWIDTH 333 0
DWIDTH 3 0
BBX 4 9 1 -2
BITMAP
30
40
40
40
80
80
80
80
40
ENDCHAR

STARTCHAR parenright
ENCODING 41
SWIDTH 333 0
DWIDTH 3 0
BBX 4 9 -1 -2
BITMAP
20
10
10
10
10
20
20
20
C0
ENDCHAR

STARTCHAR asterisk
ENCODING 42
SWIDTH 500 0
DWIDTH 5 0
BBX 5 4 1 3
BITMAP
20
F8
50
50
ENDCHAR

STARTCHAR plus
ENCODING 43
SWIDTH 606 0
DWIDTH 6 0
BBX 5 5 1 1
BITMAP
20
20
F8
20
20
ENDCHAR

STARTCHAR comma
ENCODING 44
SWIDTH 278 0
DWIDTH 3 0
BBX 2 3 0 -2
BITMAP
40
40
80
ENDCHAR

STARTCHAR minus
ENCODING 45
SWIDTH 606 0
DWIDTH 6 0
BBX 5 1 1 3
BITMAP
F8
ENDCHAR

STARTCHAR period
ENCODING 46
SWIDTH 278 0
DWIDTH 3 0
BBX 1 1 1 0
BITMAP
80
ENDCHAR

STARTCHAR slash
ENCODING 47
SWIDTH 606 0
DWIDTH 6 0
BBX 5 7 1 0
BITMAP
08
10
10
20
40
40
80
ENDCHAR

STARTCHAR zero
ENCODING 48
SWIDTH 556 0
DWIDTH 6 0
BBX 5 7 1 0
BITMAP
30
48
88
88
88
90
60
ENDCHAR

STARTCHAR one
ENCODING 49
SWIDTH 556 0
DWIDTH 6 0
BBX 3 7 2 0
BITMAP
60
20
20
40
40
40
E0
ENDCHAR

STARTCHAR two
ENCODING 50
SWIDTH 556 0
DWIDTH 6 0
BBX 5 7 1 0
BITMAP
30
48
48
10
20
48
F0
ENDCHAR

STARTCHAR three
ENCODING 51
SWIDTH 556 0
DWIDTH 6 0
BBX 6 7 0 0
BITMAP
18
24
08
30
08
88
70
ENDCHAR

STARTCHAR four
ENCODING 52
SWIDTH 556 0
DWIDTH 6 0
BBX 6 7 0 0
BITMAP
08
18
28
48
FC
10
38
ENDCHAR

STARTCHAR five
ENCODING 53
SWIDTH 556 0
DWIDTH 6 0
BBX 6 7 0 0
BITMAP
3C
20
70
08
08
90
60
ENDCHAR

STARTCHAR six
ENCODING 54
SWIDTH 556 0
DWIDTH 6 0
BBX 5 7 1 0
BITMAP
30
48
E0
90
90
90
60
ENDCHAR

STARTCHAR seven
ENCODING 55
SWIDTH 556 0
DWIDTH 6 0
BBX 4 7 2 0
BITMAP
F0
90
20
40
40
80
80
ENDCHAR

STARTCHAR eight
ENCODING 56
SWIDTH 556 0
DWIDTH 6 0
BBX 5 7 1 0
BITMAP
30
48
48
70
90
90
60
ENDCHAR

STARTCHAR nine
ENCODING 57
SWIDTH 556 0
DWIDTH 6 0
BBX 5 7 1 0
BITMAP
30
48
48
48
38
90
60
ENDCHAR

STARTCHAR colon
ENCODING 58
SWIDTH 278 0
DWIDTH 3 0
BBX 2 5 1 0
BITMAP
40
00
00
00
80
ENDCHAR

STARTCHAR semicolon
ENCODING 59
SWIDTH 278 0
DWIDTH 3 0
BBX 3 7 0 -2
BITMAP
20
00
00
00
40
40
80
ENDCHAR

STARTCHAR less
ENCODING 60
SWIDTH 606 0
DWIDTH 6 0
BBX 5 5 1 1
BITMAP
08
30
C0
30
08
ENDCHAR

STARTCHAR equal
ENCODING 61
SWIDTH 606 0
DWIDTH 6 0
BBX 5 3 1 2
BITMAP
F8
00
F8
ENDCHAR

STARTCHAR greater
ENCODING 62
SWIDTH 606 0
DWIDTH 6 0
BBX 5 5 1 1
BITMAP
80
60
18
60
80
ENDCHAR

STARTCHAR question
ENCODING 63
SWIDTH 444 0
DWIDTH 4 0
BBX 3 7 1 0
BITMAP
60
A0
40
80
40
00
80
ENDCHAR

STARTCHAR at
ENCODING 64
SWIDTH 747 0
DWIDTH 7 0
BBX 8 9 0 -2
BITMAP
1E
61
4D
95
A5
AA
55
62
1C
ENDCHAR

STARTCHAR A
ENCODING 65
SWIDTH 704 0
DWIDTH 7 0
BBX 7 7 0 0
BITMAP
04
0C
14
14
3C
44
EE
ENDCHAR

STARTCHAR B
ENCODING 66
SWIDTH 722 0
DWIDTH 7 0
BBX 7 7 0 0
BITMAP
7C
22
22
3C
44
44
F8
ENDCHAR

STARTCHAR C
ENCODING 67
SWIDTH 722 0
DWIDTH 7 0
BBX 7 7 0 0
BITMAP
3A
46
42
80
80
84
78
ENDCHAR

STARTCHAR D
ENCODING 68
SWIDTH 778 0
DWIDTH 8 0
BBX 8 7 0 0
BITMAP
7E
21
21
21
41
42
FC
ENDCHAR

STARTCHAR E
ENCODING 69
SWIDTH 722 0
DWIDTH 7 0
BBX 7 7 0 0
BITMAP
7E
22
28
38
48
44
FC
ENDCHAR

STARTCHAR F
ENCODING 70
SWIDTH 667 0
DWIDTH 7 0
BBX 7 7 0 0
BITMAP
7E
22
28
38
48
40
E0
ENDCHAR

STARTCHAR G
ENCODING 71
SWIDTH 778 0
DWIDTH 8 0
BBX 7 7 0 0
BITMAP
3A
46
40
8E
84
8C
74
ENDCHAR

STARTCHAR H
ENCODING 72
SWIDTH 833 0
DWIDTH 8 0
BBX 8 7 0 0
BITMAP
77
22
22
3E
44
44
EE
ENDCHAR

STARTCHAR I
ENCODING 73
SWIDTH 407 0
DWIDTH 4 0
BBX 4 7 0 0
BITMAP
70
20
20
20
40
40
E0
ENDCHAR

STARTCHAR J
ENCODING 74
SWIDTH 611 0
DWIDTH 6 0
BBX 6 7 0 0
BITMAP
1C
08
08
08
50
90
60
ENDCHAR

STARTCHAR K
ENCODING 75
SWIDTH 741 0
DWIDTH 7 0
BBX 7 7 0 0
BITMAP
76
24
28
30
48
44
EE
ENDCHAR

STARTCHAR L
ENCODING 76
SWIDTH 667 0
DWIDTH 7 0
BBX 6 7 1 0
BITMAP
70
20
20
20
40
44
FC
ENDCHAR

STARTCHAR M
ENCODING 77
SWIDTH 944 0
DWIDTH 9 0
BBX 10 7 0 0
BITMAP
60C0
3180
3280
2A80
4D00
4900
EB80
ENDCHAR

STARTCHAR N
ENCODING 78
SWIDTH 815 0
DWIDTH 8 0
BBX 9 7 0 0
BITMAP
6380
3100
3100
2A00
4A00
4400
E400
ENDCHAR

STARTCHAR O
ENCODING 79
SWIDTH 778 0
DWIDTH 8 0
BBX 7 7 1 0
BITMAP
3C
42
42
82
84
84
78
ENDCHAR

STARTCHAR P
ENCODING 80
SWIDTH 667 0
DWIDTH 7 0
BBX 7 7 0 0
BITMAP
7C
22
22
3C
40
40
E0
ENDCHAR

STARTCHAR Q
ENCODING 81
SWIDTH 778 0
DWIDTH 8 0
BBX 7 9 1 -2
BITMAP
3C
42
42
82
B4
CC
78
08
06
ENDCHAR

STARTCHAR R
ENCODING 82
SWIDTH 741 0
DWIDTH 7 0
BBX 7 7 0 0
BITMAP
7C
22
22
3C
48
44
E6
ENDCHAR

STARTCHAR S
ENCODING 83
SWIDTH 667 0
DWIDTH 7 0
BBX 7 7 0 0
BITMAP
3A
46
42
38
84
C4
B8
ENDCHAR

STARTCHAR T
ENCODING 84
SWIDTH 685 0
DWIDTH 7 0
BBX 7 7 0 0
BITMAP
7C
54
92
10
20
20
70
ENDCHAR

STARTCHAR U
ENCODING 85
SWIDTH 815 0
DWIDTH 8 0
BBX 8 7 1 0
BITMAP
E7
42
42
84
84
88
70
ENDCHAR

STARTCHAR V
ENCODING 86
SWIDTH 704 0
DWIDTH 7 0
BBX 7 7 1 0
BITMAP
EE
44
48
48
50
60
40
ENDCHAR

STARTCHAR W
ENCODING 87
SWIDTH 926 0
DWIDTH 9 0
BBX 10 7 0 0
BITMAP
EDC0
4880
4880
5500
5500
6600
4400
ENDCHAR

STARTCHAR X
ENCODING 88
SWIDTH 704 0
DWIDTH 7 0
BBX 8 7 0 0
BITMAP
77
22
14
18
28
44
EE
ENDCHAR

STARTCHAR Y
ENCODING 89
SWIDTH 685 0
DWIDTH 7 0
BBX 7 7 1 0
BITMAP
EE
44
48
30
20
20
70
ENDCHAR

STARTCHAR Z
ENCODING 90
SWIDTH 667 0
DWIDTH 7 0
BBX 7 7 0 0
BITMAP
7E
44
08
10
20
44
FC
ENDCHAR

STARTCHAR bracketleft
ENCODING 91
SWIDTH 333 0
DWIDTH 3 0
BBX 5 9 0 -2
BITMAP
38
20
20
40
40
40
80
80
E0
ENDCHAR

STARTCHAR backslash
ENCODING 92
SWIDTH 606 0
DWIDTH 6 0
BBX 1 9 3 -2
BITMAP
80
80
80
80
80
80
80
80
80
ENDCHAR

STARTCHAR bracketright
ENCODING 93
SWIDTH 333 0
DWIDTH 3 0
BBX 5 9 -1 -2
BITMAP
38
08
08
10
10
10
20
20
E0
ENDCHAR

STARTCHAR asciicircum
ENCODING 94
SWIDTH 606 0
DWIDTH 6 0
BBX 5 4 1 3
BITMAP
20
20
50
88
ENDCHAR

STARTCHAR underscore
ENCODING 95
SWIDTH 500 0
DWIDTH 5 0
BBX 5 1 0 -2
BITMAP
F8
ENDCHAR

STARTCHAR quoteleft
ENCODING 96
SWIDTH 204 0
DWIDTH 2 0
BBX 2 3 0 4
BITMAP
40
80
C0
ENDCHAR

STARTCHAR a
ENCODING 97
SWIDTH 574 0
DWIDTH 6 0
BBX 5 5 1 0
BITMAP
28
58
90
90
68
ENDCHAR

STARTCHAR b
ENCODING 98
SWIDTH 556 0
DWIDTH 6 0
BBX 5 7 1 0
BITMAP
C0
40
70
48
88
90
60
ENDCHAR

STARTCHAR c
ENCODING 99
SWIDTH 444 0
DWIDTH 4 0
BBX 4 5 0 0
BITMAP
30
50
80
80
60
ENDCHAR

STARTCHAR d
ENCODING 100
SWIDTH 611 0
DWIDTH 6 0
BBX 6 7 0 0
BITMAP
18
08
28
58
90
94
68
ENDCHAR

STARTCHAR e
ENCODING 101
SWIDTH 444 0
DWIDTH 4 0
BBX 4 5 0 0
BITMAP
30
50
E0
90
60
ENDCHAR

STARTCHAR f
ENCODING 102
SWIDTH 333 0
DWIDTH 3 0
BBX 5 9 0 -2
BITMAP
18
20
F0
40
40
40
40
80
80
ENDCHAR

STARTCHAR g
ENCODING 103
SWIDTH 537 0
DWIDTH 5 0
BBX 6 7 0 -2
BITMAP
34
48
48
30
70
88
70
ENDCHAR

STARTCHAR h
ENCODING 104
SWIDTH 611 0
DWIDTH 6 0
BBX 5 7 1 0
BITMAP
C0
40
70
50
90
A8
90
ENDCHAR

STARTCHAR i
ENCODING 105
SWIDTH 333 0
DWIDTH 3 0
BBX 3 7 1 0
BITMAP
20
00
C0
40
80
A0
C0
ENDCHAR

STARTCHAR j
ENCODING 106
SWIDTH 315 0
DWIDTH 3 0
BBX 5 9 -1 -2
BITMAP
08
00
30
10
10
10
20
20
C0
ENDCHAR

STARTCHAR k
ENCODING 107
SWIDTH 556 0
DWIDTH 6 0
BBX 5 7 1 0
BITMAP
C0
40
60
50
E0
A8
90
ENDCHAR

STARTCHAR l
ENCODING 108
SWIDTH 333 0
DWIDTH 3 0
BBX 3 7 0 0
BITMAP
C0
40
40
40
80
A0
C0
ENDCHAR

STARTCHAR m
ENCODING 109
SWIDTH 889 0
DWIDTH 9 0
BBX 9 5 0 0
BITMAP
DB00
6D00
4900
9280
9300
ENDCHAR

STARTCHAR n
ENCODING 110
SWIDTH 611 0
DWIDTH 6 0
BBX 6 5 0 0
BITMAP
D8
68
48
94
98
ENDCHAR

STARTCHAR o
ENCODING 111
SWIDTH 500 0
DWIDTH 5 0
BBX 5 5 0 0
BITMAP
30
48
88
90
60
ENDCHAR

STARTCHAR p
ENCODING 112
SWIDTH 574 0
DWIDTH 6 0
BBX 6 7 0 -2
BITMAP
6C
34
24
28
50
40
E0
ENDCHAR

STARTCHAR q
ENCODING 113
SWIDTH 556 0
DWIDTH 6 0
BBX 5 7 1 -2
BITMAP
28
58
90
B0
50
10
38
ENDCHAR

STARTCHAR r
ENCODING 114
SWIDTH 444 0
DWIDTH 4 0
BBX 4 5 1 0
BITMAP
D0
60
40
80
80
ENDCHAR

STARTCHAR s
ENCODING 115
SWIDTH 444 0
DWIDTH 4 0
BBX 5 5 0 0
BITMAP
30
48
20
90
60
ENDCHAR

STARTCHAR t
ENCODING 116
SWIDTH 352 0
DWIDTH 4 0
BBX 3 6 1 0
BITMAP
40
E0
40
80
A0
40
ENDCHAR

STARTCHAR u
ENCODING 117
SWIDTH 611 0
DWIDTH 6 0
BBX 5 5 1 0
BITMAP
C8
48
90
B0
D8
ENDCHAR

STARTCHAR v
ENCODING 118
SWIDTH 519 0
DWIDTH 5 0
BBX 4 5 1 0
BITMAP
D0
50
90
A0
40
ENDCHAR

STARTCHAR w
ENCODING 119
SWIDTH 778 0
DWIDTH 8 0
BBX 7 5 1 0
BITMAP
D4
52
92
B4
48
ENDCHAR

STARTCHAR x
ENCODING 120
SWIDTH 500 0
DWIDTH 5 0
BBX 5 5 0 0
BITMAP
C8
30
20
68
90
ENDCHAR

STARTCHAR y
ENCODING 121
SWIDTH 500 0
DWIDTH 5 0
BBX 6 7 -1 -2
BITMAP
64
24
28
10
10
A0
C0
ENDCHAR

STARTCHAR z
ENCODING 122
SWIDTH 463 0
DWIDTH 5 0
BBX 6 5 0 0
BITMAP
34
48
10
68
B0
ENDCHAR

STARTCHAR braceleft
ENCODING 123
SWIDTH 333 0
DWIDTH 3 0
BBX 5 9 0 -2
BITMAP
18
20
20
40
80
40
80
80
40
ENDCHAR

STARTCHAR bar
ENCODING 124
SWIDTH 606 0
DWIDTH 6 0
BBX 1 9 3 -2
BITMAP
80
80
80
80
80
80
80
80
80
ENDCHAR

STARTCHAR braceright
ENCODING 125
SWIDTH 333 0
DWIDTH 3 0
BBX 5 9 -2 -2
BITMAP
10
08
08
10
08
10
20
20
C0
ENDCHAR

STARTCHAR asciitilde
ENCODING 126
SWIDTH 606 0
DWIDTH 6 0
BBX 5 2 1 2
BITMAP
68
B0
ENDCHAR

STARTCHAR space
ENCODING 160
SWIDTH 278 0
DWIDTH 4 0
BBX 0 0 0 0
BITMAP
ENDCHAR

STARTCHAR exclamdown
ENCODING 161
SWIDTH 333 0
DWIDTH 3 0
BBX 3 7 1 -2
BITMAP
20
00
40
40
40
80
80
ENDCHAR

STARTCHAR cent
ENCODING 162
SWIDTH 556 0
DWIDTH 6 0
BBX 5 9 1 -2
BITMAP
10
10
38
70
A0
B0
60
40
40
ENDCHAR

STARTCHAR sterling
ENCODING 163
SWIDTH 556 0
DWIDTH 6 0
BBX 6 7 0 0
BITMAP
18
24
20
78
20
E4
58
ENDCHAR

STARTCHAR currency
ENCODING 164
SWIDTH 606 0
DWIDTH 6 0
BBX 5 5 1 1
BITMAP
A8
50
88
50
A8
ENDCHAR

STARTCHAR yen
ENCODING 165
SWIDTH 556 0
DWIDTH 6 0
BBX 6 7 1 0
BITMAP
EC
48
50
F8
20
F8
20
ENDCHAR

STARTCHAR brokenbar
ENCODING 166
SWIDTH 606 0
DWIDTH 6 0
BBX 1 9 3 -2
BITMAP
80
80
80
80
00
80
80
80
80
ENDCHAR

STARTCHAR section
ENCODING 167
SWIDTH 500 0
DWIDTH 5 0
BBX 5 9 0 -2
BITMAP
18
28
20
50
50
50
20
A0
C0
ENDCHAR

STARTCHAR dieresis
ENCODING 168
SWIDTH 333 0
DWIDTH 3 0
BBX 3 1 1 6
BITMAP
A0
ENDCHAR

STARTCHAR copyright
ENCODING 169
SWIDTH 747 0
DWIDTH 7 0
BBX 7 7 0 0
BITMAP
38
54
AA
A2
AA
54
38
ENDCHAR

STARTCHAR ordfeminine
ENCODING 170
SWIDTH 422 0
DWIDTH 4 0
BBX 4 4 1 3
BITMAP
30
50
A0
70
ENDCHAR

STARTCHAR guillemotleft
ENCODING 171
SWIDTH 426 0
DWIDTH 4 0
BBX 6 4 0 1
BITMAP
24
48
D8
48
ENDCHAR

STARTCHAR logicalnot
ENCODING 172
SWIDTH 606 0
DWIDTH 6 0
BBX 6 3 0 2
BITMAP
FC
04
04
ENDCHAR

STARTCHAR hyphen
ENCODING 173
SWIDTH 333 0
DWIDTH 3 0
BBX 2 1 1 2
BITMAP
C0
ENDCHAR

STARTCHAR registered
ENCODING 174
SWIDTH 747 0
DWIDTH 7 0
BBX 7 7 0 0
BITMAP
38
54
AA
B2
AA
44
38
ENDCHAR

STARTCHAR macron
ENCODING 175
SWIDTH 333 0
DWIDTH 3 0
BBX 4 1 0 6
BITMAP
F0
ENDCHAR

STARTCHAR degree
ENCODING 176
SWIDTH 400 0
DWIDTH 4 0
BBX 3 3 1 4
BITMAP
40
A0
40
ENDCHAR

STARTCHAR plusminus
ENCODING 177
SWIDTH 606 0
DWIDTH 6 0
BBX 5 7 1 0
BITMAP
20
20
F8
20
20
00
F8
ENDCHAR

STARTCHAR twosuperior
ENCODING 178
SWIDTH 333 0
DWIDTH 3 0
BBX 4 4 0 3
BITMAP
60
10
60
F0
ENDCHAR

STARTCHAR threesuperior
ENCODING 179
SWIDTH 333 0
DWIDTH 3 0
BBX 3 4 0 3
BITMAP
40
60
20
C0
ENDCHAR

STARTCHAR acute
ENCODING 180
SWIDTH 333 0
DWIDTH 3 0
BBX 2 2 2 6
BITMAP
40
80
ENDCHAR

STARTCHAR mu
ENCODING 181
SWIDTH 611 0
DWIDTH 6 0
BBX 5 7 1 -2
BITMAP
48
48
90
90
F8
80
80
ENDCHAR

STARTCHAR paragraph
ENCODING 182
SWIDTH 650 0
DWIDTH 6 0
BBX 6 9 0 -2
BITMAP
7C
E8
E8
E8
68
28
28
28
28
ENDCHAR

STARTCHAR periodcentered
ENCODING 183
SWIDTH 278 0
DWIDTH 3 0
BBX 1 1 1 3
BITMAP
80
ENDCHAR

STARTCHAR cedilla
ENCODING 184
SWIDTH 333 0
DWIDTH 3 0
BBX 3 3 0 -3
BITMAP
40
20
C0
ENDCHAR

STARTCHAR onesuperior
ENCODING 185
SWIDTH 333 0
DWIDTH 3 0
BBX 3 4 0 3
BITMAP
60
20
40
E0
ENDCHAR

STARTCHAR ordmasculine
ENCODING 186
SWIDTH 372 0
DWIDTH 4 0
BBX 3 4 1 3
BITMAP
60
A0
A0
C0
ENDCHAR

STARTCHAR guillemotright
ENCODING 187
SWIDTH 426 0
DWIDTH 4 0
BBX 6 4 0 1
BITMAP
48
6C
48
90
ENDCHAR

STARTCHAR onequarter
ENCODING 188
SWIDTH 834 0
DWIDTH 8 0
BBX 9 7 0 0
BITMAP
6200
2400
4400
E900
1300
1780
2200
ENDCHAR

STARTCHAR onehalf
ENCODING 189
SWIDTH 834 0
DWIDTH 8 0
BBX 8 7 0 0
BITMAP
62
24
44
EE
11
16
2F
ENDCHAR

STARTCHAR threequarters
ENCODING 190
SWIDTH 834 0
DWIDTH 8 0
BBX 7 7 1 0
BITMAP
44
68
28
D4
2C
3E
48
ENDCHAR

STARTCHAR questiondown
ENCODING 191
SWIDTH 444 0
DWIDTH 4 0
BBX 3 7 1 -2
BITMAP
20
00
40
20
40
A0
C0
ENDCHAR

STARTCHAR Agrave
ENCODING 192
SWIDTH 704 0
DWIDTH 7 0
BBX 7 10 0 0
BITMAP
08
04
00
04
0C
14
14
3C
44
EE
ENDCHAR

STARTCHAR Aacute
ENCODING 193
SWIDTH 704 0
DWIDTH 7 0
BBX 7 10 0 0
BITMAP
02
04
00
04
0C
14
14
3C
44
EE
ENDCHAR

STARTCHAR Acircumflex
ENCODING 194
SWIDTH 704 0
DWIDTH 7 0
BBX 7 10 0 0
BITMAP
04
0A
00
04
0C
14
14
3C
44
EE
ENDCHAR

STARTCHAR Atilde
ENCODING 195
SWIDTH 704 0
DWIDTH 7 0
BBX 8 10 0 0
BITMAP
0D
16
00
04
0C
14
14
3C
44
EE
ENDCHAR

STARTCHAR Adieresis
ENCODING 196
SWIDTH 704 0
DWIDTH 7 0
BBX 7 9 0 0
BITMAP
0A
00
04
0C
14
14
3C
44
EE
ENDCHAR

STARTCHAR Aring
ENCODING 197
SWIDTH 704 0
DWIDTH 7 0
BBX 7 10 0 0
BITMAP
04
0A
04
04
0C
14
14
3C
44
EE
ENDCHAR

STARTCHAR AE
ENCODING 198
SWIDTH 870 0
DWIDTH 9 0
BBX 10 7 0 0
BITMAP
3FC0
1440
1500
2700
3900
4880
EF80
ENDCHAR

STARTCHAR Ccedilla
ENCODING 199
SWIDTH 722 0
DWIDTH 7 0
BBX 7 10 0 -3
BITMAP
3A
46
42
80
80
84
78
20
10
60
ENDCHAR

STARTCHAR Egrave
ENCODING 200
SWIDTH 722 0
DWIDTH 7 0
BBX 7 10 0 0
BITMAP
10
08
00
7E
22
28
38
48
44
FC
ENDCHAR

STARTCHAR Eacute
ENCODING 201
SWIDTH 722 0
DWIDTH 7 0
BBX 7 10 0 0
BITMAP
04
08
00
7E
22
28
38
48
44
FC
ENDCHAR

STARTCHAR Ecircumflex
ENCODING 202
SWIDTH 722 0
DWIDTH 7 0
BBX 7 10 0 0
BITMAP
08
14
00
7E
22
28
38
48
44
FC
ENDCHAR

STARTCHAR Edieresis
ENCODING 203
SWIDTH 722 0
DWIDTH 7 0
BBX 7 9 0 0
BITMAP
14
00
7E
22
28
38
48
44
FC
ENDCHAR

STARTCHAR Igrave
ENCODING 204
SWIDTH 407 0
DWIDTH 4 0
BBX 4 10 0 0
BITMAP
40
20
00
70
20
20
20
40
40
E0
ENDCHAR

STARTCHAR Iacute
ENCODING 205
SWIDTH 407 0
DWIDTH 4 0
BBX 4 10 0 0
BITMAP
10
20
00
70
20
20
20
40
40
E0
ENDCHAR

STARTCHAR Icircumflex
ENCODING 206
SWIDTH 407 0
DWIDTH 4 0
BBX 5 10 0 0
BITMAP
10
28
00
70
20
20
20
40
40
E0
ENDCHAR

STARTCHAR Idieresis
ENCODING 207
SWIDTH 407 0
DWIDTH 4 0
BBX 5 9 0 0
BITMAP
28
00
70
20
20
20
40
40
E0
ENDCHAR

STARTCHAR Gbreve
ENCODING 208
SWIDTH 778 0
DWIDTH 8 0
BBX 7 10 0 0
BITMAP
24
18
00
3A
46
40
8E
84
8C
74
ENDCHAR

STARTCHAR Ntilde
ENCODING 209
SWIDTH 815 0
DWIDTH 8 0
BBX 9 10 0 0
BITMAP
0D00
1600
0000
6380
3100
3100
2A00
4A00
4400
E400
ENDCHAR

STARTCHAR Ograve
ENCODING 210
SWIDTH 778 0
DWIDTH 8 0
BBX 7 10 1 0
BITMAP
10
08
00
3C
42
42
82
84
84
78
ENDCHAR

STARTCHAR Oacute
ENCODING 211
SWIDTH 778 0
DWIDTH 8 0
BBX 7 10 1 0
BITMAP
04
08
00
3C
42
42
82
84
84
78
ENDCHAR

STARTCHAR Ocircumflex
ENCODING 212
SWIDTH 778 0
DWIDTH 8 0
BBX 7 10 1 0
BITMAP
08
14
00
3C
42
42
82
84
84
78
ENDCHAR

STARTCHAR Otilde
ENCODING 213
SWIDTH 778 0
DWIDTH 8 0
BBX 7 10 1 0
BITMAP
1A
2C
00
3C
42
42
82
84
84
78
ENDCHAR

STARTCHAR Odieresis
ENCODING 214
SWIDTH 778 0
DWIDTH 8 0
BBX 7 9 1 0
BITMAP
14
00
3C
42
42
82
84
84
78
ENDCHAR

STARTCHAR multiply
ENCODING 215
SWIDTH 606 0
DWIDTH 6 0
BBX 5 5 1 1
BITMAP
88
50
20
50
88
ENDCHAR

STARTCHAR Oslash
ENCODING 216
SWIDTH 778 0
DWIDTH 8 0
BBX 7 7 1 0
BITMAP
3A
46
4A
92
A4
C4
B8
ENDCHAR

STARTCHAR Ugrave
ENCODING 217
SWIDTH 815 0
DWIDTH 8 0
BBX 8 10 1 0
BITMAP
10
08
00
E7
42
42
84
84
88
70
ENDCHAR

STARTCHAR Uacute
ENCODING 218
SWIDTH 815 0
DWIDTH 8 0
BBX 8 10 1 0
BITMAP
04
08
00
E7
42
42
84
84
88
70
ENDCHAR

STARTCHAR Ucircumflex
ENCODING 219
SWIDTH 815 0
DWIDTH 8 0
BBX 8 10 1 0
BITMAP
08
14
00
E7
42
42
84
84
88
70
ENDCHAR

STARTCHAR Udieresis
ENCODING 220
SWIDTH 815 0
DWIDTH 8 0
BBX 8 9 1 0
BITMAP
14
00
E7
42
42
84
84
88
70
ENDCHAR

STARTCHAR Idotaccent
ENCODING 221
SWIDTH 407 0
DWIDTH 4 0
BBX 4 9 0 0
BITMAP
20
00
70
20
20
20
40
40
E0
ENDCHAR

STARTCHAR Scedilla
ENCODING 222
SWIDTH 667 0
DWIDTH 7 0
BBX 7 10 0 -3
BITMAP
3A
46
42
38
84
C4
B8
20
10
60
ENDCHAR

STARTCHAR germandbls
ENCODING 223
SWIDTH 556 0
DWIDTH 6 0
BBX 6 8 0 -1
BITMAP
18
24
24
78
48
48
90
80
ENDCHAR

STARTCHAR agrave
ENCODING 224
SWIDTH 574 0
DWIDTH 6 0
BBX 5 8 1 0
BITMAP
20
10
00
28
58
90
90
68
ENDCHAR

STARTCHAR aacute
ENCODING 225
SWIDTH 574 0
DWIDTH 6 0
BBX 5 8 1 0
BITMAP
08
10
00
28
58
90
90
68
ENDCHAR

STARTCHAR acircumflex
ENCODING 226
SWIDTH 574 0
DWIDTH 6 0
BBX 5 8 1 0
BITMAP
10
28
00
28
58
90
90
68
ENDCHAR

STARTCHAR atilde
ENCODING 227
SWIDTH 574 0
DWIDTH 6 0
BBX 6 8 1 0
BITMAP
34
58
00
28
58
90
90
68
ENDCHAR

STARTCHAR adieresis
ENCODING 228
SWIDTH 574 0
DWIDTH 6 0
BBX 5 7 1 0
BITMAP
28
00
28
58
90
90
68
ENDCHAR

STARTCHAR aring
ENCODING 229
SWIDTH 574 0
DWIDTH 6 0
BBX 5 9 1 0
BITMAP
10
28
10
00
28
58
90
90
68
ENDCHAR

STARTCHAR ae
ENCODING 230
SWIDTH 722 0
DWIDTH 7 0
BBX 7 5 0 0
BITMAP
26
5A
9C
92
6C
ENDCHAR

STARTCHAR ccedilla
ENCODING 231
SWIDTH 444 0
DWIDTH 4 0
BBX 4 8 0 -3
BITMAP
30
50
80
80
60
40
20
C0
ENDCHAR

STARTCHAR egrave
ENCODING 232
SWIDTH 444 0
DWIDTH 4 0
BBX 4 8 0 0
BITMAP
20
10
00
30
50
E0
90
60
ENDCHAR

STARTCHAR eacute
ENCODING 233
SWIDTH 444 0
DWIDTH 4 0
BBX 5 8 0 0
BITMAP
08
10
00
30
50
E0
90
60
ENDCHAR

STARTCHAR ecircumflex
ENCODING 234
SWIDTH 444 0
DWIDTH 4 0
BBX 5 8 0 0
BITMAP
10
28
00
30
50
E0
90
60
ENDCHAR

STARTCHAR edieresis
ENCODING 235
SWIDTH 444 0
DWIDTH 4 0
BBX 5 7 0 0
BITMAP
28
00
30
50
E0
90
60
ENDCHAR

STARTCHAR igrave
ENCODING 236
SWIDTH 333 0
DWIDTH 3 0
BBX 3 8 1 0
BITMAP
80
40
00
C0
40
80
A0
C0
ENDCHAR

STARTCHAR iacute
ENCODING 237
SWIDTH 333 0
DWIDTH 3 0
BBX 3 8 1 0
BITMAP
20
40
00
C0
40
80
A0
C0
ENDCHAR

STARTCHAR icircumflex
ENCODING 238
SWIDTH 333 0
DWIDTH 3 0
BBX 3 8 1 0
BITMAP
40
A0
00
C0
40
80
A0
C0
ENDCHAR

STARTCHAR idieresis
ENCODING 239
SWIDTH 333 0
DWIDTH 3 0
BBX 3 7 1 0
BITMAP
A0
00
C0
40
80
A0
C0
ENDCHAR

STARTCHAR gbreve
ENCODING 240
SWIDTH 537 0
DWIDTH 5 0
BBX 6 10 0 -2
BITMAP
24
18
00
34
48
48
30
70
88
70
ENDCHAR

STARTCHAR ntilde
ENCODING 241
SWIDTH 611 0
DWIDTH 6 0
BBX 6 8 0 0
BITMAP
34
58
00
D8
68
48
94
98
ENDCHAR

STARTCHAR ograve
ENCODING 242
SWIDTH 500 0
DWIDTH 5 0
BBX 5 8 0 0
BITMAP
20
10
00
30
48
88
90
60
ENDCHAR

STARTCHAR oacute
ENCODING 243
SWIDTH 500 0
DWIDTH 5 0
BBX 5 8 0 0
BITMAP
08
10
00
30
48
88
90
60
ENDCHAR

STARTCHAR ocircumflex
ENCODING 244
SWIDTH 500 0
DWIDTH 5 0
BBX 5 8 0 0
BITMAP
10
28
00
30
48
88
90
60
ENDCHAR

STARTCHAR otilde
ENCODING 245
SWIDTH 500 0
DWIDTH 5 0
BBX 6 8 0 0
BITMAP
34
58
00
30
48
88
90
60
ENDCHAR

STARTCHAR odieresis
ENCODING 246
SWIDTH 500 0
DWIDTH 5 0
BBX 5 7 0 0
BITMAP
28
00
30
48
88
90
60
ENDCHAR

STARTCHAR divide
ENCODING 247
SWIDTH 606 0
DWIDTH 6 0
BBX 5 5 1 1
BITMAP
20
00
F8
00
20
ENDCHAR

STARTCHAR oslash
ENCODING 248
SWIDTH 500 0
DWIDTH 5 0
BBX 5 5 0 0
BITMAP
38
58
A8
D0
E0
ENDCHAR

STARTCHAR ugrave
ENCODING 249
SWIDTH 611 0
DWIDTH 6 0
BBX 5 8 1 0
BITMAP
40
20
00
C8
48
90
B0
D8
ENDCHAR

STARTCHAR uacute
ENCODING 250
SWIDTH 611 0
DWIDTH 6 0
BBX 5 8 1 0
BITMAP
10
20
00
C8
48
90
B0
D8
ENDCHAR

STARTCHAR ucircumflex
ENCODING 251
SWIDTH 611 0
DWIDTH 6 0
BBX 5 8 1 0
BITMAP
10
28
00
C8
48
90
B0
D8
ENDCHAR

STARTCHAR udieresis
ENCODING 252
SWIDTH 611 0
DWIDTH 6 0
BBX 5 7 1 0
BITMAP
28
00
C8
48
90
B0
D8
ENDCHAR

STARTCHAR dotlessi
ENCODING 253
SWIDTH 333 0
DWIDTH 3 0
BBX 3 5 1 0
BITMAP
C0
40
80
A0
C0
ENDCHAR

STARTCHAR scedilla
ENCODING 254
SWIDTH 444 0
DWIDTH 4 0
BBX 5 8 0 -3
BITMAP
30
48
20
90
60
40
20
C0
ENDCHAR

STARTCHAR ydieresis
ENCODING 255
SWIDTH 500 0
DWIDTH 5 0
BBX 6 9 -1 -2
BITMAP
14
00
64
24
28
10
10
A0
C0
ENDCHAR
ENDFONT
